<svg width="726" height="369" viewBox="0 0 726 369" fill="none" xmlns="http://www.w3.org/2000/svg">
<path d="M457.784 177C457.791 177 457.795 177.007 457.792 177.014C456.646 179.26 456 181.805 456 184.5C456 193.613 463.387 201 472.5 201C481.613 201 489 193.613 489 184.5C489 181.805 488.354 179.26 487.208 177.013C487.205 177.007 487.209 177 487.216 177C487.219 177 487.222 176.998 487.224 176.996C487.226 176.993 487.226 176.989 487.224 176.986L474.24 154.071C473.474 152.719 471.526 152.719 470.76 154.071L457.776 176.986C457.772 176.992 457.777 177 457.784 177Z" fill="#051021"/>
<path fill-rule="evenodd" clip-rule="evenodd" d="M649.497 287C692.952 257.29 717 221.549 717 184.5C717 144.492 688.957 106.009 638.717 75H570.449C583.205 87.5452 593.824 101.306 601.918 116H591.548C582.783 101.251 571.239 87.4678 557.3 75H468.005C474.182 87.5452 479.324 101.306 483.244 116H473.916C469.793 101.157 464.38 87.384 457.914 75H280.086C273.62 87.384 268.207 101.157 264.084 116H254.756C258.676 101.306 263.818 87.5452 269.995 75H174.7C160.761 87.4678 149.217 101.251 140.452 116H130.082C138.176 101.306 148.795 87.5452 161.551 75H87.2826C37.0426 106.009 9 144.492 9 184.5C9 221.549 33.0483 257.29 76.5029 287H154.772C141.794 272.916 131.414 257.462 124.131 241H134.038C141.898 257.505 153.135 272.986 167.265 287H266.712C260.428 272.916 255.401 257.462 251.875 241H261.086C264.784 257.616 270.059 273.084 276.613 287H461.387C467.941 273.084 473.216 257.616 476.914 241H486.125C482.599 257.462 477.572 272.916 471.287 287H564.735C578.865 272.986 590.102 257.505 597.962 241H607.869C600.586 257.462 590.206 272.916 577.228 287H649.497ZM104 142H120V199H187V211H104V142ZM198 142H214V191C214 195.418 217.582 199 222 199H271C275.418 199 279 195.418 279 191V142H295V196C295 204.284 288.284 211 280 211H213C204.716 211 198 204.284 198 196V142ZM438 142C429.716 142 423 148.716 423 157V196C423 204.284 429.716 211 438 211H506C514.284 211 521 204.284 521 196V157C521 148.716 514.284 142 506 142H438ZM307 142H321L359 193.5L397 142H412V211H395.5V170.5L365.466 211H353.034L323 170.5V211H307V142ZM605 142V191L543.51 142H530V211H546V164L604.98 211H622V142H605Z" fill="#051021"/>
<path d="M633.748 297H567.333C543.324 319.637 512.24 338.112 476.486 350.678C529.681 341.654 577.149 326.482 615.602 306.938C621.92 303.727 627.972 300.411 633.748 297Z" fill="#051021"/>
<path d="M466.496 297H553.87C549.562 300.684 545.041 304.247 540.316 307.679C506.497 332.245 462.562 349.812 413.187 356.737C434.429 344.467 452.829 323.609 466.496 297Z" fill="#051021"/>
<path d="M456.313 297C453.843 301.524 451.23 305.853 448.486 309.969C427.967 340.747 400.795 358.836 371.832 359.946C370.405 359.963 368.975 359.977 367.544 359.986C338.066 359.406 310.357 341.233 289.514 309.969C286.77 305.853 284.157 301.524 281.687 297H456.313Z" fill="#051021"/>
<path d="M178.13 297H271.504C285.547 324.343 304.589 345.613 326.577 357.732C274.045 351.625 227.266 333.525 191.684 307.679C186.959 304.247 182.438 300.684 178.13 297Z" fill="#051021"/>
<path d="M92.2519 297H164.667C189.858 320.752 222.839 339.922 260.83 352.491C203.045 343.768 151.558 327.858 110.398 306.938C104.08 303.727 98.0284 300.411 92.2519 297Z" fill="#051021"/>
<path d="M615.602 62.0619C617.51 63.0318 619.394 64.0113 621.254 65H559.529C536.736 45.5431 508.481 29.5667 476.486 18.3222C529.681 27.3455 577.149 42.5175 615.602 62.0619Z" fill="#051021"/>
<path d="M540.316 61.3205C541.982 62.5308 543.623 63.7575 545.238 65H462.717C449.515 41.728 432.529 23.4354 413.187 12.263C462.562 19.1876 506.497 36.7552 540.316 61.3205Z" fill="#051021"/>
<path d="M448.486 59.0311C449.781 60.9739 451.047 62.9641 452.283 65H285.717C286.953 62.9641 288.219 60.9739 289.514 59.0311C310.357 27.7666 338.066 9.59443 367.544 9.01428C368.975 9.02332 370.405 9.03661 371.832 9.05415C400.795 10.1634 427.967 28.2533 448.486 59.0311Z" fill="#051021"/>
<path d="M326.577 11.2675C306.503 22.3319 288.885 41.0232 275.283 65H186.762C188.377 63.7575 190.018 62.5308 191.684 61.3205C227.266 35.4748 274.045 17.3754 326.577 11.2675Z" fill="#051021"/>
<path d="M260.83 16.5089C226.645 27.8188 196.518 44.4723 172.471 65H104.746C106.606 64.0113 108.49 63.0318 110.398 62.0619C151.558 41.1419 203.045 25.2315 260.83 16.5089Z" fill="#051021"/>
<path d="M214 142H198V196C198 204.284 204.716 211 213 211H280C288.284 211 295 204.284 295 196V142H279V191C279 195.418 275.418 199 271 199H222C217.582 199 214 195.418 214 191V142Z" fill="#D1F4ED"/>
<path d="M120 142H104V211H187V199H120V142Z" fill="#D1F4ED"/>
<path fill-rule="evenodd" clip-rule="evenodd" d="M438 142C429.716 142 423 148.716 423 157V196C423 204.284 429.716 211 438 211H506C514.284 211 521 204.284 521 196V157C521 148.716 514.284 142 506 142H438ZM457.784 177C457.791 177 457.795 177.007 457.792 177.014C456.646 179.26 456 181.805 456 184.5C456 193.613 463.387 201 472.5 201C481.613 201 489 193.613 489 184.5C489 181.805 488.354 179.26 487.208 177.014C487.205 177.007 487.209 177 487.216 177C487.223 177 487.228 176.992 487.224 176.986L474.24 154.071C473.474 152.719 471.526 152.719 470.76 154.071L457.776 176.986C457.772 176.992 457.777 177 457.784 177Z" fill="#D1F4ED"/>
<path d="M321 142H307V211H323V170.5L353.034 211H365.466L395.5 170.5V211H412V142H397L359 193.5L321 142Z" fill="#D1F4ED"/>
<path d="M605 142V191L543.51 142H530V211H546V164L604.98 211H622V142H605Z" fill="#D1F4ED"/>
<path fill-rule="evenodd" clip-rule="evenodd" d="M366 0C366.674 0 367.348 0.0019089 368.021 0.00571967C368.347 0.0019089 368.673 0 369 0C369.941 0 370.88 0.0158653 371.817 0.0474275C372.208 0.0538186 372.6 0.0608534 372.991 0.0685303C568.851 2.75855 726 84.3016 726 184.5C726 284.698 568.851 366.241 372.991 368.931C372.759 368.936 372.528 368.94 372.296 368.944C372.137 368.947 371.977 368.95 371.817 368.953C370.881 368.984 369.942 369 369 369C368.834 369 368.669 369 368.504 368.999C368.343 368.998 368.182 368.996 368.021 368.994C367.348 368.998 366.674 369 366 369C365.836 369 365.673 369 365.509 369C365.261 368.999 365.013 368.999 364.765 368.998C364.177 368.999 363.589 369 363 369C162.521 369 0 286.397 0 184.5C0 82.6035 162.521 0 363 0C363.589 0 364.177 0.0007122 364.765 0.002135C365.176 0.000712178 365.588 0 366 0ZM717 184.5C717 221.549 692.952 257.29 649.497 287H577.228C590.206 272.916 600.586 257.462 607.869 241H597.962C590.102 257.505 578.865 272.986 564.735 287H471.288C477.572 272.916 482.599 257.462 486.125 241H476.914C473.216 257.616 467.941 273.084 461.387 287H276.613C270.059 273.084 264.784 257.616 261.086 241H251.875C255.401 257.462 260.428 272.916 266.712 287H167.265C153.135 272.986 141.898 257.505 134.038 241H124.131C131.414 257.462 141.794 272.916 154.772 287H76.5029C33.0483 257.29 9 221.549 9 184.5C9 144.492 37.0426 106.009 87.2826 75H161.551C148.795 87.5453 138.176 101.306 130.082 116H140.452C149.217 101.251 160.761 87.4678 174.7 75H269.995C263.818 87.5453 258.676 101.306 254.756 116H264.084C268.207 101.157 273.62 87.3841 280.086 75H457.914C464.38 87.3841 469.793 101.157 473.916 116H483.244C479.324 101.306 474.182 87.5453 468.005 75H557.3C571.239 87.4678 582.783 101.251 591.548 116H601.918C593.824 101.306 583.205 87.5453 570.449 75H638.717C688.957 106.009 717 144.492 717 184.5ZM567.333 297H633.748C627.972 300.411 621.92 303.727 615.602 306.938C577.149 326.482 529.681 341.654 476.486 350.678C512.24 338.112 543.324 319.638 567.333 297ZM553.87 297H466.496C452.829 323.61 434.429 344.467 413.187 356.737C462.562 349.812 506.497 332.245 540.316 307.679C545.041 304.247 549.562 300.684 553.87 297ZM448.486 309.969C451.23 305.853 453.843 301.525 456.313 297H281.687C284.157 301.525 286.77 305.853 289.514 309.969C310.357 341.233 338.066 359.406 367.544 359.986C368.975 359.977 370.405 359.963 371.832 359.946C400.795 358.837 427.967 340.747 448.486 309.969ZM271.504 297H178.13C182.438 300.684 186.959 304.247 191.684 307.679C227.266 333.525 274.045 351.625 326.577 357.732C304.589 345.613 285.547 324.343 271.504 297ZM164.666 297H92.2519C98.0284 300.411 104.08 303.727 110.398 306.938C151.558 327.858 203.045 343.769 260.83 352.491C222.839 339.922 189.858 320.752 164.666 297ZM621.254 65C619.394 64.0113 617.51 63.0319 615.602 62.0619C577.149 42.5175 529.681 27.3455 476.486 18.3222C508.481 29.5668 536.736 45.5431 559.529 65H621.254ZM545.238 65C543.623 63.7575 541.982 62.5309 540.316 61.3205C506.497 36.7552 462.562 19.1877 413.187 12.263C432.529 23.4354 449.515 41.7281 462.717 65H545.238ZM452.283 65C451.047 62.9642 449.781 60.974 448.486 59.0311C427.967 28.2534 400.795 10.1634 371.832 9.0542C370.405 9.03666 368.975 9.02336 367.544 9.01433C338.066 9.59448 310.357 27.7667 289.514 59.0311C288.219 60.974 286.953 62.9642 285.717 65H452.283ZM275.283 65C288.885 41.0232 306.503 22.3319 326.577 11.2675C274.045 17.3754 227.266 35.4749 191.684 61.3205C190.018 62.5309 188.377 63.7575 186.762 65H275.283ZM172.471 65C196.518 44.4723 226.645 27.8189 260.83 16.509C203.045 25.2315 151.558 41.1419 110.398 62.0619C108.49 63.0319 106.606 64.0113 104.746 65H172.471Z" fill="#D1F4ED"/>
</svg>
