<svg width="222" height="573" viewBox="0 0 222 573" fill="none" xmlns="http://www.w3.org/2000/svg">
<path fill-rule="evenodd" clip-rule="evenodd" d="M7.88546 305.927C8.20217 305.474 8.8257 305.364 9.27815 305.681C9.66465 305.951 10.0745 306.235 10.5026 306.532C12.8144 308.135 15.6583 310.106 18.2292 312.302C21.254 314.886 24.0623 317.91 25.1535 321.184C26.8147 326.167 31.4786 328.89 34.9987 329.047C36.0742 329.095 37.2674 330.035 37.0085 331.422C36.6751 333.209 35.9634 335.447 34.6692 337.138C34.015 337.993 33.1875 338.739 32.1541 339.193C31.1087 339.652 29.9128 339.784 28.5831 339.497C28.4643 339.472 28.3341 339.432 28.2019 339.37C26.7212 338.679 23.5232 336.073 20.3366 330.496C18.2418 326.83 16.5577 325.311 15.5927 324.757C15.3968 327.769 15.6238 332.93 17.5827 336.521C18.7488 338.659 19.9128 340.641 20.9963 342.486C21.2981 343 21.5936 343.503 21.8812 343.996C23.1913 346.242 24.3465 348.292 25.124 350.106C25.9128 351.947 26.3613 354.03 26.0649 355.734C25.914 356.602 25.5566 357.438 24.8804 358.057C24.1927 358.688 23.2787 359 22.2047 359C21.5398 359 20.8633 358.767 20.2211 358.415C19.5703 358.058 18.8952 357.547 18.2156 356.909C16.8561 355.633 15.4093 353.786 14.0306 351.445C11.2699 346.758 8.72775 340.001 7.71196 331.62C7.6455 331.072 8.03609 330.574 8.58436 330.507C9.13263 330.441 9.63097 330.831 9.69742 331.38C10.6816 339.499 13.1394 345.992 15.7538 350.43C17.0626 352.652 18.3971 354.336 19.5844 355.451C20.1782 356.008 20.718 356.407 21.1824 356.661C21.6554 356.92 21.9946 357 22.2047 357C22.8807 357 23.2792 356.812 23.529 356.583C23.7902 356.344 23.9954 355.961 24.0945 355.391C24.2981 354.22 23.9967 352.553 23.2857 350.894C22.5633 349.208 21.4685 347.258 20.1536 345.004C19.8715 344.52 19.5797 344.023 19.2803 343.514C18.1949 341.665 17.0098 339.647 15.8269 337.479C13.4756 333.168 13.3758 327.158 13.6343 324.13C13.6717 323.691 13.8647 323.246 14.2255 322.932C14.612 322.596 15.1605 322.447 15.7213 322.629C17.251 323.126 19.4932 324.989 22.0731 329.504C25.1198 334.836 28.0298 337.069 29.0231 337.546C29.9583 337.745 30.7173 337.639 31.3501 337.362C31.9991 337.077 32.5756 336.583 33.0811 335.923C34.0988 334.593 34.7279 332.719 35.0357 331.091C35.0259 331.083 35.0117 331.073 34.9928 331.065C34.9671 331.053 34.9385 331.046 34.9098 331.045C30.6169 330.854 25.1961 327.636 23.2562 321.816C22.3474 319.09 19.9056 316.364 16.9303 313.823C14.4435 311.699 11.6966 309.794 9.38246 308.189C8.94865 307.889 8.53005 307.598 8.13123 307.319C7.67878 307.003 7.56874 306.379 7.88546 305.927Z" fill="#BEEEFF"/>
<path d="M125.205 360.5V326C123.205 332.8 115.705 340.5 112.205 343.5C113.705 347.5 117.705 390.5 118.705 399.5C119.705 408.5 116.705 424 115.705 434C114.705 444 114.705 453.5 115.705 457.5C116.705 461.5 116.705 477 116.705 492C116.705 507 113.205 523.5 111.205 532.5C109.205 541.5 111.205 543.5 114.705 546.5C118.205 549.5 122.705 548.5 129.205 547.5C135.705 546.5 138.205 550 142.205 550C146.205 550 157.205 553 162.205 554C167.205 555 169.205 553 172.205 551C175.205 549 175.205 548 175.205 544.5C175.205 541 171.705 541.5 165.705 541C159.705 540.5 147.205 535 145.205 533.5C143.205 532 143.205 530.5 137.205 527C131.308 523.56 128.792 514.325 127.283 508.787L127.205 508.5C125.705 503 127.705 472.5 127.205 467.5C126.705 462.5 127.205 436 128.705 431.5C130.205 427 134.205 415.5 131.205 409C128.205 402.5 125.205 370 125.205 360.5Z" fill="#BEEEFF"/>
<path d="M56.2047 359.5C56.2047 352.3 57.8714 340.5 58.7047 335.5C53.1048 329.1 48.7047 317.5 47.2046 312.5C45.7046 319 46.2046 350 47.2046 359.5C48.2046 369 48.7046 384 47.2046 397.5C45.7046 411 46.7046 432 47.2046 438.5C47.7046 445 45.2046 488.5 44.7046 496.5C44.2046 504.5 43.7046 514 43.2046 517C42.7046 520 41.7046 525 41.2046 527.5C40.7046 530 38.7046 537.5 38.2046 542C37.7046 546.5 32.7046 555.5 32.7046 561.5C32.7046 567.5 35.2046 568 39.7046 569.5C44.2046 571 48.2046 572.5 55.2046 572C62.2046 571.5 61.7046 569 59.7046 561.5C57.7046 554 56.2046 536.5 55.2046 532.5C54.2046 528.5 54.2047 523.5 53.2047 517C52.2047 510.5 53.2047 493.5 53.2047 487C53.2047 480.5 54.2047 464.5 54.2047 457.5C54.2047 450.5 55.2047 438.5 56.7047 427C58.2047 415.5 57.2047 399.5 56.7047 393C56.2047 386.5 56.2047 368.5 56.2047 359.5Z" fill="#BEEEFF"/>
<path fill-rule="evenodd" clip-rule="evenodd" d="M92.7403 248.175C92.92 247.366 93.7213 246.856 94.53 247.036C96.2092 247.409 100.75 248.941 106.449 252.198C108.281 253.245 109.943 254.455 111.207 255.789C112.461 257.111 113.421 258.661 113.631 260.381C113.85 262.173 113.223 263.897 111.791 265.425C111.43 265.809 111.018 266.182 110.553 266.545C111.349 267.142 112.103 267.777 112.765 268.439C114.797 270.472 115.784 273.074 115.305 275.706C114.829 278.328 112.957 280.662 109.923 282.317C109.203 282.709 108.344 283.164 107.361 283.653C107.708 283.819 108.053 283.991 108.395 284.168C111.888 285.98 114.004 287.905 114.902 289.983C115.849 292.176 115.31 294.207 114.279 295.811C113.278 297.367 111.763 298.627 110.456 299.53C110.158 299.736 109.866 299.928 109.585 300.104C110.529 300.831 111.288 301.671 111.952 302.668C112.73 303.835 112.826 305.147 112.571 306.363C112.321 307.553 111.726 308.72 111.009 309.779C109.574 311.897 107.434 313.894 105.576 315.221C105.184 315.501 104.69 315.795 104.114 316.097C105.087 316.491 106 316.945 106.785 317.469C107.699 318.079 108.53 318.843 109.033 319.804C109.564 320.817 109.681 321.96 109.284 323.137C108.907 324.257 108.1 325.312 106.969 326.322C104.719 328.332 100.797 330.504 94.7565 332.895C93.9862 333.2 93.1146 332.822 92.8097 332.052C92.5048 331.282 92.882 330.41 93.6523 330.105C99.6115 327.746 103.127 325.731 104.971 324.084C105.887 323.266 106.291 322.625 106.441 322.18C106.572 321.791 106.533 321.496 106.376 321.196C106.191 320.844 105.803 320.421 105.12 319.964C104.447 319.515 103.571 319.09 102.536 318.701C101.74 318.402 100.873 318.133 99.9695 317.894C98.0004 318.629 95.6887 319.366 93.2087 320.014C87.6358 321.47 81.065 322.517 75.5622 321.993C74.2064 321.864 73.0992 321.691 72.2146 321.476C71.3513 321.266 70.6018 320.994 70.0332 320.613C69.4549 320.226 68.8625 319.574 68.8519 318.627C68.8424 317.768 69.3293 317.129 69.7062 316.752C70.4739 315.984 71.7117 315.378 72.8563 314.947C74.0503 314.499 75.384 314.153 76.5183 314.012C76.9281 313.96 77.3501 313.904 77.7885 313.845C81.6371 313.327 86.7502 312.64 95.9269 314.017C97.1863 314.206 98.4958 314.45 99.7793 314.754C101.738 313.982 103.134 313.279 103.833 312.779C105.475 311.606 107.335 309.853 108.525 308.096C109.121 307.217 109.494 306.416 109.635 305.746C109.77 305.103 109.678 304.665 109.456 304.332C108.775 303.31 107.955 302.464 106.559 301.716C104.663 302.539 100.373 304.18 94.9887 305.459C88.582 306.982 80.4598 308.033 72.9005 306.469C71.0421 306.084 69.5768 305.673 68.4567 305.233C67.369 304.806 66.46 304.296 65.8669 303.632C65.5552 303.283 65.3017 302.859 65.1901 302.359C65.0763 301.849 65.1318 301.356 65.2941 300.919C65.595 300.107 66.2488 299.511 66.8289 299.094C68.0274 298.233 69.7759 297.535 71.3391 297.033C72.9299 296.522 74.5142 296.155 75.4922 296.015C79.04 295.508 87.7216 294.482 96.951 296.02C101.206 296.73 104.256 297.454 106.542 298.397C107.1 298.102 107.905 297.647 108.749 297.063C109.927 296.248 111.068 295.258 111.755 294.189C112.411 293.168 112.591 292.199 112.148 291.173C111.655 290.033 110.271 288.52 107.014 286.832C105.945 286.277 104.848 285.784 103.73 285.347C96.7903 288.367 86.4716 291.622 75.55 290.492C71.8802 290.112 69.1953 289.599 67.3433 288.987C66.4193 288.682 65.6392 288.332 65.0337 287.919C64.4427 287.517 63.875 286.956 63.6426 286.181C63.3893 285.337 63.6258 284.558 64.0279 283.972C64.4042 283.423 64.9488 282.994 65.5012 282.657C66.6166 281.976 68.1659 281.431 69.8671 281.038C73.2074 280.268 79.327 279.249 86.343 279.313C91.8066 279.362 97.8816 280.069 103.629 282.108C105.596 281.214 107.242 280.362 108.486 279.683C110.951 278.338 112.08 276.672 112.354 275.169C112.625 273.676 112.112 272.028 110.644 270.561C109.835 269.752 108.842 268.974 107.8 268.262C107.028 268.656 106.179 269.034 105.251 269.397C99.2951 271.728 92.1132 272.871 85.1833 273.062C78.2546 273.253 71.4634 272.494 66.2736 270.937C63.7361 270.176 61.8304 269.411 60.5626 268.614C59.4261 267.899 58.1537 266.731 58.4837 265.081C58.6331 264.334 59.0848 263.761 59.5524 263.343C60.0259 262.919 60.6207 262.559 61.2671 262.245C62.5615 261.615 64.3033 261.054 66.3408 260.545C74.5576 258.491 88.8549 257.469 102.679 262.077L102.731 262.094L102.781 262.115C103.897 262.58 105.855 263.516 107.894 264.756C108.622 264.285 109.182 263.82 109.603 263.372C110.53 262.384 110.747 261.515 110.653 260.744C110.55 259.902 110.042 258.92 109.03 257.852C108.028 256.795 106.628 255.755 104.96 254.802C99.4588 251.659 95.1999 250.258 93.8792 249.964C93.0705 249.785 92.5606 248.983 92.7403 248.175ZM104.706 266.383C103.502 265.728 102.416 265.216 101.677 264.906C88.5173 260.534 74.8412 261.512 67.0684 263.455C65.1059 263.946 63.5977 264.447 62.5795 264.943C62.0697 265.191 61.7426 265.409 61.552 265.579C61.5447 265.586 61.5377 265.592 61.531 265.598C61.6336 265.703 61.8217 265.862 62.1591 266.074C63.0787 266.652 64.6731 267.325 67.1356 268.063C71.9458 269.506 78.4046 270.247 85.1008 270.063C91.7959 269.879 98.6141 268.773 104.158 266.603C104.345 266.53 104.528 266.456 104.706 266.383ZM61.4157 265.447C61.4168 265.447 61.4212 265.455 61.4257 265.47C61.4169 265.455 61.4146 265.447 61.4157 265.447ZM99.2877 283.915C94.9585 282.789 90.4942 282.35 86.3157 282.312C79.5818 282.251 73.7014 283.232 70.5417 283.962C68.9929 284.319 67.7921 284.774 67.0638 285.218C66.9236 285.304 66.8148 285.38 66.7316 285.446C67.0218 285.642 67.513 285.883 68.2842 286.138C69.8385 286.652 72.2785 287.138 75.8587 287.508C84.542 288.406 92.8932 286.331 99.2877 283.915ZM102.287 300.167C100.73 299.763 98.822 299.374 96.4578 298.98C87.6868 297.518 79.3688 298.492 75.9165 298.985C75.1446 299.095 73.7288 299.416 72.2571 299.889C70.7579 300.371 69.3814 300.954 68.5798 301.531C68.4415 301.63 68.3416 301.714 68.2704 301.781C68.481 301.942 68.872 302.173 69.5536 302.441C70.4569 302.796 71.7417 303.166 73.5083 303.531C80.449 304.967 88.0768 304.018 94.2952 302.541C97.4653 301.787 100.226 300.907 102.287 300.167ZM93.791 316.747C86.0952 315.755 81.6946 316.346 78.1735 316.82C77.7337 316.879 77.3075 316.936 76.8904 316.988C76.0247 317.097 74.921 317.376 73.9118 317.756C73.3107 317.982 72.8152 318.216 72.4452 318.431C72.5828 318.473 72.7412 318.517 72.9227 318.561C73.6221 318.731 74.5773 318.886 75.8466 319.007C80.8437 319.483 87.0229 318.53 92.4501 317.111C92.9038 316.993 93.3511 316.871 93.791 316.747ZM71.7654 318.944C71.765 318.944 71.7679 318.939 71.7755 318.93C71.7697 318.939 71.7659 318.944 71.7654 318.944Z" fill="#BEEEFF"/>
<path fill-rule="evenodd" clip-rule="evenodd" d="M80.0278 3.98031C67.1967 6.57117 55.3459 13.5913 50.0368 21.5549C42.7791 32.4414 37.6646 44.8128 35.189 58.676C33.9556 65.5833 33.3299 80.2476 33.0169 94.959C32.7046 109.635 32.7046 124.25 32.7046 131C32.7046 141.776 34.3701 188.783 35.2039 210.963L35.2039 210.963C35.5549 220.44 37.7002 251.089 39.283 263.865C40.227 270.183 41.6324 278.825 43.6915 291.338C46.9272 311.001 51.8911 323.478 57.2888 331.636C62.6707 339.77 68.517 343.66 73.6347 346.097C83.8549 350.964 100.92 351.434 113.062 341.234C124.856 331.327 126.607 315.42 127.622 306.191C127.652 305.918 127.682 305.651 127.711 305.39C128.201 300.981 127.957 289.324 127.518 276.346C127.33 270.783 127.106 264.99 126.893 259.458C126.612 252.148 126.347 245.293 126.205 240.027C125.705 221.518 125.704 166.479 127.207 145.429C127.89 135.874 129.501 120.751 131.054 106.173C131.211 104.698 131.368 103.228 131.523 101.769C133.215 85.8547 134.705 71.4313 134.705 66.5001C134.705 56.5854 132.713 31.9 114.97 12.6785C106.299 3.28532 92.8447 1.3923 80.0278 3.98031ZM79.6319 2.01987C92.815 -0.642057 107.11 1.21504 116.44 11.3219C134.697 31.1003 136.705 56.4149 136.705 66.5001C136.705 71.5689 135.195 86.1457 133.512 101.981C133.357 103.437 133.201 104.904 133.044 106.375C131.489 120.968 129.882 136.054 129.202 145.571C127.706 166.521 127.705 221.482 128.204 239.973C128.347 245.234 128.61 252.063 128.891 259.359C129.104 264.891 129.328 270.691 129.517 276.279C129.953 289.177 130.209 301.02 129.699 305.611C129.665 305.91 129.631 306.22 129.597 306.539C128.594 315.693 126.772 332.33 114.348 342.766C101.49 353.566 83.5547 353.036 72.7749 347.903C67.3926 345.34 61.2389 341.23 55.6208 332.739C50.0184 324.272 44.9824 311.5 41.7181 291.663C39.6581 279.145 38.2497 270.485 37.3031 264.148L37.3013 264.135L37.2997 264.123C35.708 251.284 33.5579 220.558 33.2053 211.037C32.3724 188.883 30.7046 141.824 30.7046 131V130.999C30.7046 124.248 30.7046 109.615 31.0173 94.9164C31.3293 80.2527 31.9536 65.417 33.2202 58.3244C35.7446 44.1876 40.9639 31.5586 48.3727 20.4455C54.0639 11.9088 66.4631 4.67895 79.6319 2.01987Z" fill="#BEEEFF"/>
<path d="M8.70481 228.5C13.5048 184.9 26.3715 151.333 32.2048 140L32.2046 170C27.7046 176 26.2046 189 24.2046 193.5C22.2046 198 19.7046 215 17.7046 220.5C15.7046 226 15.2046 240.5 13.2046 249.5C11.2046 258.5 12.2046 260.5 10.7046 283.5C9.50459 301.9 13.2046 310.167 15.2046 312C3.20459 302.8 0.538071 311.5 0.704812 317C-1.79519 294.5 2.70481 283 8.70481 228.5Z" fill="#BEEEFF"/>
<path d="M147.205 218C145.605 214.4 133.205 188.833 127.205 176.5V154.5C129.538 159.667 134.605 170.8 136.205 174C138.205 178 151.705 205.5 152.705 207.5C153.705 209.5 156.705 214.5 163.205 207.5C169.705 200.5 189.705 182 190.205 178.5C191.805 182.9 195.538 184.667 197.205 185C196.705 186 183.705 202 180.705 205C177.705 208 165.205 218 158.705 224C152.205 230 149.205 222.5 147.205 218Z" fill="#BEEEFF"/>
<path fill-rule="evenodd" clip-rule="evenodd" d="M212.69 117.219C213.624 116.939 214.597 117.433 214.938 118.334C215.861 120.775 216.15 124.445 216.197 126.51C217.161 127.14 217.892 128.175 218.409 129.108C219.051 130.267 219.485 131.497 219.675 132.257C220.201 134.362 221.204 140.449 221.204 151C221.204 156.368 220.308 160.238 219.202 163.166C218.422 165.233 217.508 166.875 216.804 168.142C216.531 168.632 216.289 169.066 216.099 169.447C215.859 169.928 215.431 170.515 214.917 171.141C214.39 171.783 213.727 172.519 212.975 173.308C211.468 174.886 209.573 176.702 207.618 178.436C205.665 180.168 203.637 181.833 201.865 183.102C200.98 183.736 200.144 184.282 199.404 184.689C198.688 185.083 197.971 185.401 197.346 185.49C196.149 185.661 195.084 185.262 194.198 184.638C193.325 184.021 192.575 183.153 191.949 182.263C190.928 180.812 190.121 179.129 189.605 178.055C189.493 177.821 189.394 177.615 189.31 177.447C189.135 177.098 188.966 176.566 188.807 175.964C188.642 175.34 188.471 174.569 188.308 173.7C187.981 171.963 187.679 169.8 187.52 167.571C187.361 165.348 187.342 163.027 187.595 160.986C187.843 158.987 188.371 157.076 189.452 155.842C189.909 155.319 190.2 154.461 190.269 153.24C190.337 152.037 190.18 150.607 189.871 149.081C189.253 146.034 188.06 142.776 187.074 140.535C186.745 139.788 186.887 138.877 187.528 138.284C188.115 137.74 188.897 137.075 189.681 136.54C190.073 136.272 190.484 136.023 190.887 135.838C191.273 135.66 191.735 135.5 192.204 135.5C192.22 135.5 192.237 135.5 192.253 135.5C192.984 135.5 193.923 135.499 194.936 135.967C195.974 136.446 196.977 137.355 198.037 138.945C198.4 139.491 198.614 140.251 198.755 141.038C198.902 141.855 198.992 142.827 199.041 143.884C199.118 145.548 199.095 147.478 199.014 149.448C199.472 149.137 199.82 148.749 200.091 148.306C200.6 147.476 200.868 146.399 200.974 145.165C201.08 143.935 201.019 142.626 200.925 141.371C200.901 141.053 200.874 140.733 200.848 140.417C200.775 139.532 200.704 138.682 200.704 138C200.704 137.819 200.703 137.6 200.701 137.348C200.687 135.221 200.658 130.738 201.351 127.005C201.733 124.95 202.368 122.909 203.512 121.648C204.111 120.988 204.88 120.51 205.829 120.402C206.477 120.328 207.145 120.434 207.828 120.696C209.123 118.712 211.215 117.661 212.69 117.219ZM206.982 122.516C206.602 122.387 206.297 122.362 206.056 122.389C205.685 122.431 205.337 122.613 204.993 122.992C204.251 123.81 203.691 125.362 203.318 127.37C202.662 130.896 202.688 135.168 202.702 137.321C202.703 137.58 202.704 137.808 202.704 138C202.704 138.593 202.764 139.315 202.835 140.164C202.862 140.498 202.891 140.85 202.919 141.222C203.015 142.499 203.087 143.94 202.967 145.335C202.848 146.726 202.533 148.149 201.797 149.35C201.152 150.404 200.208 151.245 198.896 151.743C198.735 154.369 198.499 156.933 198.278 158.914C198.279 158.908 198.275 158.914 198.287 158.935C198.299 158.959 198.325 158.992 198.367 159.02C200.809 160.643 201.604 163.5 201.71 166.152C201.817 168.831 201.238 171.561 200.653 173.316C200.479 173.84 199.912 174.123 199.388 173.949C198.864 173.774 198.581 173.208 198.756 172.684C199.285 171.096 199.806 168.611 199.711 166.232C199.615 163.826 198.907 161.78 197.26 160.685C196.656 160.284 196.195 159.549 196.29 158.692C196.527 156.569 196.782 153.764 196.939 150.945C197.076 148.465 197.136 145.995 197.043 143.976C196.996 142.965 196.912 142.089 196.787 141.392C196.656 140.665 196.498 140.244 196.372 140.055C195.432 138.645 194.685 138.054 194.098 137.783C193.508 137.511 192.966 137.5 192.204 137.5C192.16 137.5 192.007 137.524 191.724 137.654C191.458 137.777 191.147 137.96 190.809 138.191C190.143 138.646 189.449 139.232 188.906 139.733C189.927 142.055 191.176 145.453 191.831 148.684C192.159 150.299 192.347 151.914 192.266 153.353C192.186 154.775 191.835 156.155 190.957 157.159C190.288 157.924 189.816 159.326 189.58 161.232C189.348 163.098 189.361 165.277 189.514 167.429C189.668 169.575 189.959 171.662 190.273 173.331C190.43 174.165 190.591 174.887 190.741 175.454C190.896 176.043 191.024 176.402 191.099 176.553C191.201 176.757 191.314 176.992 191.438 177.249C191.958 178.332 192.671 179.814 193.585 181.112C194.146 181.91 194.741 182.573 195.351 183.003C195.95 183.425 196.51 183.589 197.063 183.51C197.313 183.474 197.767 183.307 198.439 182.938C199.085 182.582 199.851 182.084 200.7 181.476C202.397 180.261 204.369 178.644 206.291 176.939C208.211 175.236 210.066 173.458 211.528 171.927C212.26 171.16 212.886 170.463 213.371 169.872C213.869 169.266 214.175 168.822 214.31 168.553C214.558 168.058 214.837 167.556 215.135 167.022C215.821 165.79 216.605 164.382 217.332 162.459C218.35 159.762 219.204 156.132 219.204 151C219.204 140.551 218.208 134.638 217.734 132.743C217.583 132.138 217.21 131.072 216.659 130.076C216.085 129.04 215.433 128.291 214.814 128.028C214.559 127.92 214.313 127.895 214.044 127.965C213.761 128.039 213.38 128.239 212.912 128.707C211.46 130.159 211.084 132.304 211.203 134.445C211.32 136.561 211.912 138.46 212.153 139.184C212.186 139.282 212.237 139.425 212.302 139.608C212.703 140.732 213.644 143.372 214.249 146.564C214.95 150.257 215.238 154.858 213.633 158.871C213.428 159.384 212.846 159.634 212.333 159.428C211.82 159.223 211.571 158.641 211.776 158.129C213.171 154.642 212.959 150.493 212.284 146.936C211.712 143.92 210.835 141.452 210.424 140.296C210.352 140.095 210.295 139.934 210.256 139.816C209.997 139.04 209.338 136.939 209.206 134.555C209.075 132.196 209.449 129.341 211.497 127.293C212.141 126.65 212.821 126.217 213.54 126.03C213.756 125.973 213.969 125.941 214.177 125.93C214.094 123.961 213.806 121.098 213.118 119.18C211.736 119.627 209.975 120.65 209.152 122.421C208.924 122.911 208.763 123.466 208.7 124.099C208.583 125.26 208.64 127.337 208.773 129.925C208.843 131.267 208.929 132.69 209.019 134.16C209.102 135.536 209.189 136.954 209.266 138.384C209.422 141.292 209.533 144.154 209.478 146.454C209.45 147.602 209.38 148.638 209.246 149.484C209.121 150.274 208.914 151.089 208.485 151.625C208.14 152.056 207.511 152.126 207.08 151.781C206.649 151.436 206.579 150.807 206.924 150.375C206.995 150.286 207.148 149.945 207.271 149.171C207.385 148.451 207.451 147.515 207.478 146.405C207.532 144.19 207.425 141.395 207.268 138.491C207.194 137.116 207.108 135.691 207.024 134.3C206.933 132.803 206.844 131.345 206.776 130.028C206.644 127.476 206.575 125.24 206.709 123.9C206.758 123.412 206.851 122.95 206.982 122.516Z" fill="#BEEEFF"/>
<path d="M71.2263 82.008C71.3189 82.4161 71.4334 82.9077 71.5649 83.4574C73.7709 84.6571 79.5046 87.1874 84.7915 87.7109C90.0785 88.2345 94.5522 87.9291 96.1282 87.7109C97.0775 86.4313 98.0316 85.2408 98.7046 84.439C96.0014 83.8476 93.1762 83.3898 90.3568 83.0393C87.8892 82.7325 85.4259 82.5077 83.0524 82.3474C78.6084 82.0473 74.4793 81.9729 71.2263 82.008Z" fill="#BEEEFF"/>
<path d="M84.1944 107.955C87.9541 108.409 90.2776 105.375 91.7046 102.178C91.0409 99.2262 86.5393 94.0149 73.8418 96.7874C75.3629 101.024 78.0156 107.207 84.1944 107.955Z" fill="#BEEEFF"/>
<path d="M55.2045 86L44.4612 95.7666C44.2949 95.9178 44.186 96.1083 44.1509 96.3303C42.2135 108.604 42.7045 141.726 42.7045 166.5C42.7045 186.236 47.5736 228.695 50.1044 248.23C50.1641 248.691 50.5316 249.033 50.994 249.079L60.2045 250C58.8711 236 55.8045 199.7 54.2045 166.5C52.6045 133.3 53.8711 99.6667 55.2045 86Z" fill="#BEEEFF"/>
<path fill-rule="evenodd" clip-rule="evenodd" d="M54.5318 85.2601C54.7933 85.0224 55.1608 84.9403 55.4986 85.0442L68.4987 89.0442L67.9105 90.9558L56.0857 87.3174C54.8014 101.636 53.6512 134.245 55.2033 166.452C56.7675 198.908 59.7346 234.334 61.1104 248.959L115.075 246.549C115.076 246.549 115.076 246.549 115.077 246.549C114.044 238.258 112.205 221.373 112.205 212.5C112.205 200.983 113.205 159.464 114.206 141.445C115.163 124.221 117.036 107.419 118.522 99.7951C118.522 99.792 118.523 99.79 118.523 99.789L118.522 99.787C118.522 99.7867 118.522 99.7865 118.522 99.7862C113.894 98.8864 104.608 97.2322 97.5999 96.4945L97.8093 94.5055C104.906 95.2526 114.261 96.9203 118.904 97.8231C120.003 98.0368 120.695 99.0979 120.485 100.178C119.025 107.67 117.158 124.367 116.203 141.555C115.204 159.536 114.205 201.017 114.205 212.5C114.205 221.23 116.027 237.997 117.062 246.305C117.207 247.471 116.325 248.496 115.164 248.547L60.2491 250.999C60.201 251.001 60.1528 251 60.105 250.995L50.8945 250.074C49.9905 249.984 49.2348 249.301 49.1127 248.358C46.5837 228.838 41.7045 186.313 41.7045 166.5C41.7045 162.433 41.6912 158.137 41.6776 153.743C41.6499 144.77 41.621 135.389 41.7012 126.718C41.8205 113.825 42.1807 102.398 43.1631 96.1744C43.2364 95.7103 43.4671 95.3189 43.7885 95.0267L54.5318 85.2601ZM115.079 246.549C115.079 246.549 115.079 246.549 115.079 246.549C115.079 246.549 115.079 246.549 115.079 246.549ZM59.0946 248.884C57.7064 234.082 54.7624 198.851 53.2056 166.548C51.6958 135.218 52.7343 103.498 53.9794 88.4652L45.1357 96.5049C44.1829 102.56 43.8206 113.821 43.7011 126.737C43.621 135.396 43.6499 144.754 43.6776 153.72C43.6912 158.117 43.7045 162.42 43.7045 166.5C43.7045 186.154 48.5605 228.527 51.0938 248.084L59.0946 248.884Z" fill="#BEEEFF"/>
<path fill-rule="evenodd" clip-rule="evenodd" d="M86.2046 173C94.765 173 101.705 166.284 101.705 158C101.705 149.716 94.765 143 86.2046 143C77.6442 143 70.7046 149.716 70.7046 158C70.7046 166.284 77.6442 173 86.2046 173ZM80.7046 158C82.9137 158 84.7046 156.209 84.7046 154C84.7046 151.791 82.9137 150 80.7046 150C78.4955 150 76.7046 151.791 76.7046 154C76.7046 156.209 78.4955 158 80.7046 158Z" fill="#BEEEFF"/>
<path fill-rule="evenodd" clip-rule="evenodd" d="M4.65705 329.501C5.20871 329.475 5.67721 329.901 5.70348 330.452C5.86871 333.922 6.34029 339.354 7.21466 344.353C7.65204 346.853 8.18601 349.221 8.8238 351.17C9.47401 353.158 10.1884 354.57 10.9117 355.293C13.0827 357.464 15.0369 358.57 16.7071 358.893C18.3324 359.208 19.7811 358.801 21.0644 357.732C21.4887 357.378 22.1193 357.436 22.4728 357.86C22.8264 358.284 22.7691 358.915 22.3448 359.268C20.6281 360.699 18.5768 361.292 16.3271 360.857C14.1223 360.43 11.8265 359.036 9.4975 356.707C8.42081 355.63 7.58938 353.83 6.92292 351.792C6.24404 349.717 5.69051 347.247 5.24457 344.697C4.35226 339.596 3.87385 334.078 3.70574 330.548C3.67947 329.996 4.10539 329.527 4.65705 329.501Z" fill="#BEEEFF"/>
<path fill-rule="evenodd" clip-rule="evenodd" d="M1.20459 306C1.75687 306 2.20459 306.448 2.20459 307C2.20459 310.464 2.57718 317.329 2.95297 323.918C2.99644 324.68 3.03997 325.439 3.08296 326.188C3.40933 331.877 3.70459 337.023 3.70459 339C3.70459 341.727 3.82883 345.311 4.198 348.51C4.38272 350.111 4.62629 351.594 4.93895 352.814C5.25972 354.067 5.6244 354.924 5.98546 355.375C6.92347 356.548 7.92041 357.411 9.08322 357.887C10.2305 358.356 11.6339 358.487 13.4621 358.03C13.9978 357.896 14.5408 358.222 14.6747 358.757C14.8087 359.293 14.4829 359.836 13.9471 359.97C11.7752 360.513 9.92865 360.394 8.32596 359.738C6.73877 359.089 5.48571 357.952 4.42372 356.625C3.78478 355.826 3.33696 354.621 3.00148 353.311C2.65789 351.969 2.40146 350.389 2.21118 348.74C1.83035 345.439 1.70459 341.773 1.70459 339C1.70459 337.086 1.41315 332.004 1.08501 326.282C1.04251 325.541 0.999392 324.789 0.956212 324.032C0.582005 317.471 0.20459 310.536 0.20459 307C0.20459 306.448 0.652305 306 1.20459 306Z" fill="#BEEEFF"/>
<path fill-rule="evenodd" clip-rule="evenodd" d="M83.3305 63.0143C83.5329 62.6499 83.9403 62.4493 84.3526 62.511L94.376 64.011C94.9221 64.0927 95.2986 64.6015 95.2171 65.1475C94.878 67.421 94.4204 70.9368 94.1498 74.0896C94.0143 75.6679 93.9273 77.1373 93.9232 78.3076C93.9211 78.8936 93.94 79.3868 93.9802 79.7721C93.9873 79.8404 93.9948 79.9027 94.0026 79.9593C97.8595 80.4861 101.721 81.1632 105.431 82.0259C105.765 82.1035 106.035 82.3462 106.148 82.6693C106.262 82.9924 106.202 83.3509 105.99 83.6196C105.033 84.8306 103.674 86.634 102.321 88.5722C101.249 90.1089 100.189 91.7187 99.3406 93.1787C98.4774 94.6636 97.8831 95.9093 97.6748 96.7425L97.6709 96.7581C97.2608 98.3986 96.4973 101.452 95.1369 104.417C93.2116 108.613 89.8227 113.168 84.0878 112.493C79.6249 111.968 76.4565 109.523 74.1729 106.559C71.9049 103.615 70.4699 100.111 69.4496 97.3462C69.3865 97.1753 69.3249 97.007 69.2648 96.8417C67.8951 93.0751 66.2086 86.1319 65.2157 81.7195C65.101 81.21 64.9953 80.7327 64.9 80.2963C62.663 80.3325 60.752 80.4071 59.2657 80.4981C58.7145 80.5318 58.2402 80.1123 58.2065 79.5611C58.1727 79.0098 58.5923 78.5356 59.1435 78.5018C60.8463 78.3976 63.0762 78.3153 65.6931 78.2852C70.111 78.2344 75.6449 78.3323 81.6241 78.727C81.503 76.7536 81.4413 74.1016 81.581 71.4733C81.6658 69.8789 81.8256 68.2756 82.0967 66.8287C82.3653 65.3952 82.7545 64.051 83.3305 63.0143ZM83.6373 78.8701C86.3578 79.0774 89.154 79.3477 91.9655 79.6946C91.9339 79.2768 91.9214 78.8059 91.9232 78.3005C91.9276 77.0511 92.0197 75.5199 92.1571 73.9186C92.3954 71.142 92.7749 68.1009 93.0952 65.8416L84.7857 64.5981C84.4953 65.2967 84.2537 66.1767 84.0625 67.1971C83.8128 68.5298 83.6601 70.0398 83.5782 71.5795C83.4366 74.2418 83.5094 76.9405 83.6373 78.8701ZM66.9429 80.2751C67.0129 80.5925 67.0877 80.9286 67.1669 81.2804C68.1636 85.7094 69.8251 92.5301 71.1444 96.1582C71.2036 96.3211 71.2641 96.4863 71.3259 96.6537C72.3357 99.3897 73.686 102.65 75.7573 105.339C77.8129 108.007 80.5379 110.062 84.3215 110.507C88.6222 111.013 91.4356 107.688 93.3192 103.583C94.5977 100.797 95.3243 97.8981 95.7345 96.2574C96.0166 95.1288 96.7395 93.6737 97.6115 92.1736C98.498 90.6485 99.5914 88.9892 100.681 87.4277C101.649 86.0412 102.619 84.7228 103.451 83.6312C100.07 82.8992 96.5718 82.3148 93.0736 81.8524C89.5489 81.3865 86.0279 81.045 82.633 80.8012C76.822 80.384 71.3868 80.2536 66.9429 80.2751Z" fill="#BEEEFF"/>
<path fill-rule="evenodd" clip-rule="evenodd" d="M82.9027 69.8497C80.3627 71.8242 77.1709 73 73.7046 73C65.4203 73 58.7046 66.2843 58.7046 58C58.7046 49.7157 65.4203 43 73.7046 43C81.9889 43 88.7046 49.7157 88.7046 58C88.7046 60.1174 88.2659 62.1323 87.4744 63.9588L84.4083 63.5C83.5878 64.9768 83.132 67.3236 82.9027 69.8497ZM73.2037 49C69.6037 45.8 67.037 50.3333 66.2037 53L69.2037 57L66.2037 59C66.2037 59 65.5092 59.8196 66.7037 65C68.3925 72.3245 72.2037 66.5 73.2037 64.5C74.2037 62.5 77.7037 53 73.2037 49Z" fill="#BEEEFF"/>
<path fill-rule="evenodd" clip-rule="evenodd" d="M118.705 64C118.705 71.732 112.66 78 105.205 78C100.293 78 95.9936 75.2796 93.6316 71.2125C93.8849 68.8947 94.1886 66.6298 94.4317 65L91.7165 64.5937C91.7086 64.3968 91.7046 64.1989 91.7046 64C91.7046 56.268 97.7487 50 105.205 50C112.66 50 118.705 56.268 118.705 64ZM104.568 56.0639C101.137 52.9707 98.6903 57.3527 97.8959 59.9303L100.755 63.7967L97.8959 65.7299C97.8959 65.7299 97.234 66.5222 98.3725 71.5295C99.9823 78.6094 103.615 72.9794 104.568 71.0462C105.521 69.113 108.858 59.9303 104.568 56.0639Z" fill="#BEEEFF"/>
</svg>
